<svg width="276" height="242" viewBox="0 0 276 242" fill="none" xmlns="http://www.w3.org/2000/svg">
<mask id="mask0_19_103" style="mask-type:luminance" maskUnits="userSpaceOnUse" x="0" y="0" width="276" height="242">
<path d="M276 0H0V242H276V0Z" fill="white"/>
</mask>
<g mask="url(#mask0_19_103)">
<path d="M180.033 210.228H207.644V191.146H221.355V210.228H248.967V51.7754L180.033 43.1533V210.228ZM103.744 210.228H131.355V191.146H145.066V210.228H172.678V125.356H103.744V210.228ZM27.455 210.228H55.0663V191.146H68.7773V210.228H96.3886V99.9131H27.455V210.228ZM62.4218 92.5518H103.744V117.995H131.355V26.7637H62.4218V92.5518ZM256.322 217.589H20.0995V92.5518H55.0663V19.4023H138.711V117.995H172.678V34.8154L173.239 34.8857L255.885 45.2217L256.322 45.2764V217.589Z" fill="#454B57" stroke="#454B57"/>
<path d="M132.355 165.759V179.484H118.637V165.759H132.355Z" fill="#454B57" stroke="#454B57"/>
<path d="M157.784 165.759V179.484H144.067V165.759H157.784Z" fill="#454B57" stroke="#454B57"/>
<path d="M132.355 140.259V153.983H118.637V140.259H132.355Z" fill="#454B57" stroke="#454B57"/>
<path d="M157.784 140.259V153.983H144.067V140.259H157.784Z" fill="#454B57" stroke="#454B57"/>
<path d="M91.0324 67.1661V80.8907H77.3146V67.1661H91.0324Z" fill="#454B57" stroke="#454B57"/>
<path d="M116.462 67.1661V80.8907H102.744V67.1661H116.462Z" fill="#454B57" stroke="#454B57"/>
<path d="M91.0324 41.6654V55.39H77.3146V41.6654H91.0324Z" fill="#454B57" stroke="#454B57"/>
<path d="M116.462 41.6654V55.39H102.744V41.6654H116.462Z" fill="#454B57" stroke="#454B57"/>
<path d="M56.0658 165.759V179.484H42.3549V165.759H56.0658Z" fill="#454B57" stroke="#454B57"/>
<path d="M81.4955 165.759V179.484H67.7845V165.759H81.4955Z" fill="#454B57" stroke="#454B57"/>
<path d="M56.0658 140.259V153.983H42.3549V140.259H56.0658Z" fill="#454B57" stroke="#454B57"/>
<path d="M81.4955 140.259V153.983H67.7845V140.259H81.4955Z" fill="#454B57" stroke="#454B57"/>
<path d="M56.0658 114.815V128.54H42.3549V114.815H56.0658Z" fill="#454B57" stroke="#454B57"/>
<path d="M81.4955 114.815V128.54H67.7845V114.815H81.4955Z" fill="#454B57" stroke="#454B57"/>
<path d="M208.644 165.759V179.484H194.926V165.759H208.644Z" fill="#454B57" stroke="#454B57"/>
<path d="M234.073 165.759V179.484H220.356V165.759H234.073Z" fill="#454B57" stroke="#454B57"/>
<path d="M208.644 140.259V153.983H194.926V140.259H208.644Z" fill="#454B57" stroke="#454B57"/>
<path d="M234.073 140.259V153.983H220.356V140.259H234.073Z" fill="#454B57" stroke="#454B57"/>
<path d="M208.644 114.815V128.54H194.926V114.815H208.644Z" fill="#454B57" stroke="#454B57"/>
<path d="M234.073 114.815V128.54H220.356V114.815H234.073Z" fill="#454B57" stroke="#454B57"/>
<path d="M208.644 89.4292V103.154H194.926V89.4292H208.644Z" fill="#454B57" stroke="#454B57"/>
<path d="M234.073 89.4292V103.154H220.356V89.4292H234.073Z" fill="#454B57" stroke="#454B57"/>
<path d="M208.644 63.9286V77.6532H194.926V63.9286H208.644Z" fill="#454B57" stroke="#454B57"/>
<path d="M234.073 63.9286V77.6532H220.356V63.9286H234.073Z" fill="#454B57" stroke="#454B57"/>
</g>
</svg>
