<svg width="1862" height="458" viewBox="0 0 1862 458" fill="none" xmlns="http://www.w3.org/2000/svg">
<mask id="mask0_3_84" style="mask-type:luminance" maskUnits="userSpaceOnUse" x="898" y="0" width="365" height="191">
<path d="M898.589 0.333328H1262.59V191H898.589V0.333328Z" fill="white"/>
</mask>
<g mask="url(#mask0_3_84)">
<path d="M1256.72 154.682L1201.52 99.4792V35.7135C1201.52 24.1823 1192.18 14.8385 1180.63 14.8385C1169.11 14.8385 1159.77 24.1823 1159.77 35.7135V57.724L1118.66 16.6198C1098.34 -3.69272 1063.01 -3.65626 1042.73 16.6562L904.698 154.682C896.552 162.849 896.552 176.057 904.698 184.214C912.854 192.375 926.089 192.375 934.24 184.214L1072.26 46.1823C1076.75 41.7083 1084.68 41.7083 1089.15 46.1667L1227.19 184.214C1231.28 188.292 1236.62 190.323 1241.95 190.323C1247.3 190.323 1252.65 188.292 1256.72 184.214C1264.88 176.063 1264.88 162.849 1256.72 154.682Z" fill="#545454"/>
</g>
<path d="M1087.96 85.8073C1083.95 81.7969 1077.46 81.7969 1073.46 85.8073L952.052 207.182C950.135 209.099 949.047 211.714 949.047 214.443V302.974C949.047 323.745 965.891 340.589 986.661 340.589H1046.78V247.495H1114.64V340.589H1174.75C1195.52 340.589 1212.36 323.745 1212.36 302.974V214.443C1212.36 211.714 1211.29 209.099 1209.36 207.182L1087.96 85.8073Z" fill="#545454"/>
<path d="M212.225 195.937V59.8741H272.787V195.937C272.787 217.994 268.1 238.39 258.725 257.124C249.36 275.848 236.568 291.452 220.35 303.937H272.787C272.787 328.895 266.646 351.671 254.37 372.27C242.089 392.879 225.652 409.317 205.058 421.582C184.459 433.859 161.672 439.999 136.704 439.999V379.457C156.256 379.457 173.313 372.692 187.87 359.166C202.438 345.65 210.558 329.114 212.225 309.541C201.402 317.041 189.542 322.77 176.641 326.728C163.751 330.676 150.438 332.645 136.704 332.645C111.313 332.645 88.3183 326.51 67.7245 314.228C47.1256 301.952 30.6881 285.515 18.412 264.916C6.13078 244.322 -0.00463867 221.327 -0.00463867 195.937V59.8741H60.5579V195.937C60.5579 210.093 63.985 222.89 70.8495 234.332C77.7089 245.78 86.86 254.937 98.3079 261.812C109.751 268.676 122.547 272.103 136.704 272.103C150.438 272.103 163.027 268.676 174.475 261.812C185.917 254.937 195.068 245.78 201.933 234.332C208.792 222.89 212.225 210.093 212.225 195.937Z" fill="#5A7799"/>
<path d="M436.322 59.8741C461.291 59.8741 484.078 66.0147 504.677 78.2908C525.27 90.5564 541.708 106.994 553.989 127.603C566.265 148.202 572.406 170.978 572.406 195.937C572.406 221.327 566.265 244.322 553.989 264.916C541.708 285.515 525.27 301.952 504.677 314.228C484.078 326.51 461.291 332.645 436.322 332.645C410.932 332.645 387.937 326.51 367.343 314.228C346.744 301.952 330.307 285.515 318.031 264.916C305.749 244.322 299.614 221.327 299.614 195.937C299.614 170.978 305.749 148.202 318.031 127.603C330.307 106.994 346.744 90.5564 367.343 78.2908C387.937 66.0147 410.932 59.8741 436.322 59.8741ZM436.322 272.103C450.057 272.103 462.645 268.676 474.093 261.812C485.536 254.937 494.687 245.78 501.552 234.332C508.411 222.89 511.843 210.093 511.843 195.937C511.843 182.218 508.411 169.635 501.552 158.187C494.687 146.744 485.536 137.593 474.093 130.728C462.645 123.853 450.057 120.416 436.322 120.416C422.166 120.416 409.369 123.853 397.927 130.728C386.479 137.593 377.328 146.744 370.468 158.187C363.604 169.635 360.177 182.218 360.177 195.937C360.177 210.093 363.604 222.89 370.468 234.332C377.328 245.78 386.479 254.937 397.927 261.812C409.369 268.676 422.166 272.103 436.322 272.103Z" fill="#5A7799"/>
<path d="M735.941 59.8741C760.91 59.8741 783.696 66.0147 804.295 78.2908C824.889 90.5564 841.326 106.994 853.608 127.603C865.884 148.202 872.024 170.978 872.024 195.937V332.645H811.462V195.937C811.462 182.218 808.029 169.635 801.17 158.187C794.305 146.744 785.154 137.593 773.712 130.728C762.264 123.853 749.675 120.416 735.941 120.416C721.785 120.416 708.988 123.853 697.545 130.728C686.097 137.593 676.946 146.744 670.087 158.187C663.222 169.635 659.795 182.218 659.795 195.937V332.645H599.233V59.8741H659.795V82.9574C670.613 75.4731 682.467 69.7595 695.358 65.8116C708.259 61.8533 721.785 59.8741 735.941 59.8741Z" fill="#5A7799"/>
<path d="M1288.55 66.955H1349.13V90.0592C1359.95 82.5592 1371.81 76.8405 1384.71 72.8925C1397.63 68.9342 1411.16 66.955 1425.32 66.955C1450.3 66.955 1473.1 73.1009 1493.71 85.3925C1514.32 97.6738 1530.76 114.117 1543.05 134.726C1555.34 155.34 1561.48 178.132 1561.48 203.101C1561.48 228.507 1555.34 251.512 1543.05 272.122C1530.76 292.736 1514.32 309.184 1493.71 321.476C1473.1 333.757 1450.3 339.893 1425.32 339.893C1411.16 339.893 1397.63 337.913 1384.71 333.955C1371.81 329.997 1359.95 324.278 1349.13 316.788V457.309H1288.55V66.955ZM1349.13 203.101C1349.13 217.268 1352.56 230.08 1359.42 241.538C1366.3 252.986 1375.45 262.143 1386.9 269.018C1398.36 275.882 1411.16 279.309 1425.32 279.309C1439.07 279.309 1451.66 275.882 1463.11 269.018C1474.55 262.143 1483.71 252.986 1490.59 241.538C1497.46 230.08 1500.9 217.268 1500.9 203.101C1500.9 189.367 1497.46 176.778 1490.59 165.33C1483.71 153.872 1474.55 144.715 1463.11 137.851C1451.66 130.976 1439.07 127.538 1425.32 127.538C1411.16 127.538 1398.36 130.976 1386.9 137.851C1375.45 144.715 1366.3 153.872 1359.42 165.33C1352.56 176.778 1349.13 189.367 1349.13 203.101Z" fill="#545454"/>
<path d="M1588.35 66.955H1648.93V90.0592C1659.75 82.5592 1671.61 76.8405 1684.51 72.8925C1697.43 68.9342 1710.96 66.955 1725.12 66.955C1750.1 66.955 1772.9 73.1009 1793.51 85.3925C1814.12 97.6738 1830.56 114.117 1842.85 134.726C1855.14 155.34 1861.28 178.132 1861.28 203.101C1861.28 228.507 1855.14 251.512 1842.85 272.122C1830.56 292.736 1814.12 309.184 1793.51 321.476C1772.9 333.757 1750.1 339.893 1725.12 339.893C1710.96 339.893 1697.43 337.913 1684.51 333.955C1671.61 329.997 1659.75 324.278 1648.93 316.788V457.309H1588.35V66.955ZM1648.93 203.101C1648.93 217.268 1652.36 230.08 1659.22 241.538C1666.1 252.986 1675.25 262.143 1686.7 269.018C1698.16 275.882 1710.96 279.309 1725.12 279.309C1738.87 279.309 1751.46 275.882 1762.91 269.018C1774.35 262.143 1783.51 252.986 1790.39 241.538C1797.26 230.08 1800.7 217.268 1800.7 203.101C1800.7 189.367 1797.26 176.778 1790.39 165.33C1783.51 153.872 1774.35 144.715 1762.91 137.851C1751.46 130.976 1738.87 127.538 1725.12 127.538C1710.96 127.538 1698.16 130.976 1686.7 137.851C1675.25 144.715 1666.1 153.872 1659.22 165.33C1652.36 176.778 1648.93 189.367 1648.93 203.101Z" fill="#545454"/>
<path d="M611.273 434.778C607.732 434.778 604.148 434.278 600.523 433.278C596.898 432.278 593.586 430.94 590.586 429.258L593.44 421.987C595.482 422.862 597.612 423.653 599.836 424.362C602.055 425.07 604.169 425.648 606.169 426.091C608.18 426.523 609.883 426.737 611.273 426.737C614.69 426.737 617.216 426.028 618.857 424.612C620.492 423.185 621.315 421.502 621.315 419.57C621.315 417.351 620.419 415.461 618.627 413.903C616.846 412.336 613.961 410.711 609.961 409.028L606.565 407.653C602.034 405.794 598.549 403.549 596.107 400.924C593.674 398.299 592.461 395.19 592.461 391.591C592.461 388.633 593.284 386.07 594.94 383.903C596.607 381.737 598.888 380.07 601.794 378.903C604.711 377.737 608.086 377.153 611.919 377.153C615.013 377.153 618.002 377.502 620.877 378.195C623.763 378.877 626.534 379.799 629.19 380.966L626.69 388.903C625.117 388.211 623.445 387.586 621.669 387.028C619.904 386.461 618.174 386.018 616.482 385.695C614.784 385.362 613.232 385.195 611.815 385.195C609.034 385.195 606.799 385.778 605.107 386.945C603.409 388.112 602.565 389.664 602.565 391.591C602.565 393.122 603.18 394.622 604.419 396.091C605.669 397.565 607.857 398.961 610.982 400.278L614.544 401.758C617.93 403.148 620.883 404.622 623.398 406.174C625.909 407.716 627.862 409.544 629.252 411.653C630.638 413.768 631.336 416.357 631.336 419.424C631.336 422.523 630.502 425.232 628.836 427.549C627.18 429.857 624.857 431.643 621.857 432.903C618.867 434.153 615.341 434.778 611.273 434.778Z" fill="#545454"/>
<path d="M648.853 366.987C647.145 366.987 645.676 366.44 644.457 365.341C643.234 364.247 642.624 362.856 642.624 361.174C642.624 359.58 643.234 358.231 644.457 357.133C645.676 356.039 647.145 355.487 648.853 355.487C650.645 355.487 652.155 356.039 653.395 357.133C654.629 358.231 655.249 359.58 655.249 361.174C655.249 362.856 654.635 364.247 653.416 365.341C652.207 366.44 650.687 366.987 648.853 366.987ZM653.937 433.466H643.832V378.508H653.937V433.466Z" fill="#545454"/>
<path d="M686.149 434.778C682.493 434.778 679.649 434.049 677.607 432.591C675.566 431.133 674.133 429.06 673.316 426.362C672.493 423.669 672.086 420.461 672.086 416.737V385.133H665.086V380.591L673.628 378.508L675.524 366.924H682.149V378.508H698.941V385.133H682.149V416.362C682.149 420.143 682.717 422.778 683.857 424.278C685.008 425.778 686.795 426.528 689.211 426.528C691.17 426.528 692.972 426.174 694.628 425.466C696.295 424.747 698.055 423.82 699.92 422.695L703.086 428.549C701.555 429.539 699.888 430.518 698.086 431.487C696.279 432.445 694.368 433.231 692.357 433.841C690.357 434.466 688.284 434.778 686.149 434.778Z" fill="#545454"/>
<path d="M759.173 405.903H718.381V406.508C718.381 410.747 719.136 414.356 720.652 417.341C722.162 420.33 724.287 422.606 727.027 424.174C729.761 425.747 732.949 426.528 736.589 426.528C740.048 426.528 743.173 425.82 745.964 424.403C748.756 422.976 751.298 421.07 753.589 418.695L757.798 424.445C756.199 426.377 754.35 428.127 752.256 429.695C750.157 431.268 747.719 432.508 744.943 433.424C742.178 434.325 739.011 434.778 735.443 434.778C731.537 434.778 727.954 434.159 724.693 432.924C721.428 431.69 718.6 429.856 716.214 427.424C713.824 424.997 711.969 422.039 710.652 418.549C709.344 415.049 708.693 411.06 708.693 406.57C708.693 402.195 709.365 398.216 710.714 394.633C712.074 391.039 713.969 387.935 716.402 385.32C718.844 382.711 721.714 380.705 725.006 379.299C728.308 377.898 731.912 377.195 735.818 377.195C740.745 377.195 744.985 378.33 748.527 380.591C752.079 382.856 754.798 386.133 756.673 390.424C758.558 394.705 759.391 399.862 759.173 405.903ZM736.048 385.508C733.49 385.508 731.1 386.023 728.881 387.049C726.657 388.065 724.735 389.539 723.11 391.466C721.485 393.398 720.266 395.773 719.464 398.591H749.923C749.714 395.164 748.928 392.502 747.568 390.612C746.219 388.711 744.532 387.383 742.506 386.633C740.49 385.883 738.339 385.508 736.048 385.508Z" fill="#545454"/>
<path d="M821.856 410.883L832.189 377.695H847.876L828.585 432.487L826.46 437.674C825.069 441.133 823.418 444.008 821.501 446.299C819.585 448.601 817.512 450.466 815.293 451.883C813.069 453.31 810.793 454.424 808.46 455.216C806.126 456.018 803.866 456.643 801.689 457.091L798.668 445.924C800.751 445.341 802.59 444.7 804.189 444.008C805.798 443.325 807.22 442.372 808.46 441.153C809.694 439.929 810.793 438.221 811.751 436.028L813.231 432.591L813.168 432.487L792.835 377.695H809.126L819.397 410.82L820.647 418.549L821.856 410.883Z" fill="#545454"/>
<path d="M869.792 368.445C867.75 368.445 866.026 367.83 864.625 366.591C863.219 365.357 862.521 363.773 862.521 361.841C862.521 360.607 862.838 359.508 863.479 358.549C864.114 357.58 864.989 356.799 866.104 356.216C867.213 355.633 868.443 355.341 869.792 355.341C871.135 355.341 872.364 355.633 873.479 356.216C874.588 356.799 875.479 357.58 876.146 358.549C876.823 359.508 877.167 360.607 877.167 361.841C877.167 363.773 876.443 365.357 875 366.591C873.568 367.83 871.833 368.445 869.792 368.445ZM893.458 368.445C891.458 368.445 889.755 367.83 888.354 366.591C886.948 365.357 886.25 363.773 886.25 361.841C886.25 360.607 886.568 359.508 887.208 358.549C887.844 357.58 888.708 356.799 889.792 356.216C890.885 355.633 892.109 355.341 893.458 355.341C894.844 355.341 896.094 355.633 897.208 356.216C898.318 356.799 899.208 357.58 899.875 358.549C900.552 359.508 900.896 360.607 900.896 361.841C900.896 363.773 900.172 365.357 898.729 366.591C897.297 367.83 895.542 368.445 893.458 368.445ZM881.542 434.778C877.5 434.778 873.734 434.06 870.25 432.633C866.76 431.19 863.729 429.164 861.146 426.549C858.562 423.94 856.542 420.862 855.083 417.32C853.625 413.768 852.896 409.851 852.896 405.57C852.896 401.351 853.625 397.461 855.083 393.903C856.542 390.351 858.562 387.273 861.146 384.674C863.729 382.065 866.76 380.044 870.25 378.612C873.734 377.169 877.5 376.445 881.542 376.445C885.552 376.445 889.297 377.169 892.771 378.612C896.255 380.044 899.312 382.065 901.937 384.674C904.562 387.273 906.604 390.351 908.062 393.903C909.521 397.461 910.25 401.351 910.25 405.57C910.25 409.851 909.521 413.768 908.062 417.32C906.604 420.862 904.562 423.94 901.937 426.549C899.312 429.164 896.255 431.19 892.771 432.633C889.297 434.06 885.552 434.778 881.542 434.778ZM881.604 422.591C884.406 422.591 886.818 421.893 888.833 420.487C890.859 419.086 892.422 417.107 893.521 414.549C894.614 411.997 895.167 409.002 895.167 405.57C895.167 400.252 893.948 396.091 891.521 393.091C889.104 390.08 885.776 388.57 881.542 388.57C877.344 388.57 874.026 390.08 871.583 393.091C869.151 396.091 867.937 400.252 867.937 405.57C867.937 409.002 868.489 411.997 869.604 414.549C870.713 417.107 872.292 419.086 874.333 420.487C876.375 421.893 878.797 422.591 881.604 422.591Z" fill="#545454"/>
<path d="M956.371 376.383C959.715 376.383 962.507 376.914 964.746 377.966C966.996 379.023 968.788 380.476 970.121 382.32C971.455 384.153 972.413 386.278 972.996 388.695C973.58 391.101 973.871 393.669 973.871 396.403V433.466H958.726V399.466C958.726 396.148 957.965 393.669 956.455 392.028C954.939 390.393 952.814 389.57 950.08 389.57C947.746 389.57 945.476 390.19 943.267 391.424C941.069 392.664 938.856 394.664 936.621 397.424V433.466H921.476V377.695H930.496L933.892 388.528C935.934 386.086 938.064 383.955 940.288 382.133C942.507 380.299 944.934 378.883 947.559 377.883C950.184 376.883 953.121 376.383 956.371 376.383Z" fill="#545454"/>
<path d="M1012.65 376.383C1017.94 376.383 1022.48 377.606 1026.27 380.049C1030.06 382.497 1032.92 386.049 1034.86 390.716C1036.78 395.383 1037.61 401.065 1037.31 407.758H998.502C998.794 412.622 1000.31 416.341 1003.06 418.924C1005.81 421.508 1009.38 422.799 1013.75 422.799C1016.09 422.799 1018.24 422.455 1020.23 421.758C1022.22 421.065 1024.04 420.148 1025.71 419.008C1027.39 417.856 1028.91 416.643 1030.27 415.362L1036.23 423.633C1034.62 425.674 1032.66 427.544 1030.36 429.237C1028.06 430.935 1025.4 432.278 1022.38 433.278C1019.36 434.278 1015.9 434.778 1012 434.778C1007.99 434.778 1004.3 434.153 1000.94 432.903C997.591 431.643 994.69 429.789 992.231 427.341C989.773 424.898 987.867 421.883 986.523 418.299C985.174 414.705 984.502 410.57 984.502 405.903C984.502 401.57 985.19 397.612 986.565 394.028C987.95 390.435 989.908 387.315 992.44 384.674C994.981 382.023 997.966 379.981 1001.4 378.549C1004.83 377.106 1008.58 376.383 1012.65 376.383ZM999.481 398.528H1023.92C1023.78 395.862 1023.19 393.778 1022.17 392.278C1021.15 390.768 1019.84 389.69 1018.23 389.049C1016.63 388.414 1014.87 388.091 1012.94 388.091C1009.73 388.091 1006.94 388.987 1004.56 390.778C1002.19 392.56 1000.49 395.143 999.481 398.528Z" fill="#545454"/>
<path d="M1065.55 434.778C1062.34 434.778 1059.69 434.278 1057.59 433.278C1055.51 432.278 1053.88 430.883 1052.72 429.091C1051.55 427.299 1050.72 425.205 1050.24 422.799C1049.76 420.398 1049.53 417.794 1049.53 414.987V387.32H1042.66V380.528L1052.05 377.695L1054.51 366.487H1064.63V377.695H1080.22V387.32H1064.63V414.32C1064.63 417.461 1065.14 419.627 1066.18 420.82C1067.22 422.002 1068.67 422.591 1070.53 422.591C1072.28 422.591 1073.94 422.294 1075.51 421.695C1077.08 421.086 1078.72 420.31 1080.43 419.362L1084.86 427.841C1083.16 428.898 1081.26 429.966 1079.2 431.049C1077.14 432.122 1074.96 433.008 1072.66 433.716C1070.36 434.424 1067.99 434.778 1065.55 434.778Z" fill="#545454"/>
<path d="M1100.76 368.508C1099.26 368.508 1097.88 368.19 1096.61 367.549C1095.36 366.914 1094.37 366.028 1093.64 364.903C1092.91 363.778 1092.55 362.502 1092.55 361.07C1092.55 359.685 1092.91 358.435 1093.64 357.32C1094.37 356.211 1095.36 355.33 1096.61 354.674C1097.88 354.023 1099.26 353.695 1100.76 353.695C1102.31 353.695 1103.72 354.023 1104.99 354.674C1106.25 355.33 1107.25 356.211 1107.99 357.32C1108.74 358.435 1109.11 359.685 1109.11 361.07C1109.11 362.502 1108.74 363.778 1107.99 364.903C1107.25 366.028 1106.25 366.914 1104.99 367.549C1103.72 368.19 1102.31 368.508 1100.76 368.508ZM1108.41 433.466H1093.2V377.695H1108.41V433.466Z" fill="#545454"/>
<path d="M1191.61 374.383C1195.55 374.383 1198.77 375.231 1201.26 376.924C1203.76 378.622 1205.59 381.008 1206.76 384.091C1207.92 387.174 1208.51 390.794 1208.51 394.945V431.466H1193.36V397.674C1193.36 394.33 1192.72 391.815 1191.44 390.133C1190.16 388.455 1188.45 387.612 1186.3 387.612C1183.93 387.612 1181.68 388.33 1179.53 389.758C1177.37 391.174 1175.42 393.106 1173.67 395.549V431.466H1158.59V397.737C1158.59 394.377 1157.95 391.851 1156.67 390.153C1155.39 388.461 1153.66 387.612 1151.49 387.612C1149.15 387.612 1146.89 388.33 1144.72 389.758C1142.55 391.174 1140.59 393.122 1138.84 395.591V431.466H1123.69V375.695H1132.72L1136.17 386.695C1139.09 382.393 1142.36 379.268 1145.99 377.32C1149.61 375.362 1153.19 374.383 1156.74 374.383C1160.89 374.383 1164.23 375.315 1166.76 377.174C1169.3 379.039 1171.13 381.627 1172.26 384.945C1175.06 381.226 1178.15 378.539 1181.53 376.883C1184.9 375.216 1188.26 374.383 1191.61 374.383Z" fill="#545454"/>
</svg>
