<svg width="576" height="512" viewBox="0 0 576 512" fill="none" xmlns="http://www.w3.org/2000/svg">
<mask id="mask0_51_2" style="mask-type:luminance" maskUnits="userSpaceOnUse" x="0" y="0" width="576" height="512">
<path d="M576 0H0V512H576V0Z" fill="white"/>
</mask>
<g mask="url(#mask0_51_2)">
<path d="M361.414 34.8648V210.709H288.441V2.1156H115.965V156.879H42.9907V419.303H533.891V56.7337L361.414 34.8648ZM129.229 15.5739H275.176V210.709H215.467V156.879H129.229V15.5739ZM202.203 405.845H142.493V365.472H115.965V405.845H56.2549V170.337H202.203V405.845ZM361.414 405.845H301.705V365.472H275.176V405.845H215.467V224.168H361.414V405.845ZM520.626 405.845H460.917V365.472H434.388V405.845H374.679V50.1122L520.626 68.6169V405.845Z" fill="#454B57"/>
<path d="M248.634 311.763H275.176V338.685H248.634V311.763Z" fill="#454B57"/>
<path d="M301.704 311.763H328.247V338.685H301.704V311.763Z" fill="#454B57"/>
<path d="M248.634 257.812H275.176V284.734H248.634V257.812Z" fill="#454B57"/>
<path d="M301.704 257.812H328.247V284.734H301.704V257.812Z" fill="#454B57"/>
<path d="M162.396 103.17H188.938V130.092H162.396V103.17Z" fill="#454B57"/>
<path d="M215.467 103.17H242.009V130.092H215.467V103.17Z" fill="#454B57"/>
<path d="M162.396 49.2177H188.938V76.1402H162.396V49.2177Z" fill="#454B57"/>
<path d="M215.467 49.2177H242.009V76.1402H215.467V49.2177Z" fill="#454B57"/>
<path d="M89.4365 311.763H115.965V338.685H89.4365V311.763Z" fill="#454B57"/>
<path d="M142.507 311.763H169.035V338.685H142.507V311.763Z" fill="#454B57"/>
<path d="M89.4365 257.812H115.965V284.734H89.4365V257.812Z" fill="#454B57"/>
<path d="M142.507 257.812H169.035V284.734H142.507V257.812Z" fill="#454B57"/>
<path d="M89.4365 203.981H115.965V230.903H89.4365V203.981Z" fill="#454B57"/>
<path d="M142.507 203.981H169.035V230.903H142.507V203.981Z" fill="#454B57"/>
<path d="M407.846 311.763H434.388V338.685H407.846V311.763Z" fill="#454B57"/>
<path d="M460.916 311.763H487.459V338.685H460.916V311.763Z" fill="#454B57"/>
<path d="M407.846 257.812H434.388V284.734H407.846V257.812Z" fill="#454B57"/>
<path d="M460.916 257.812H487.459V284.734H460.916V257.812Z" fill="#454B57"/>
<path d="M407.846 203.981H434.388V230.903H407.846V203.981Z" fill="#454B57"/>
<path d="M460.916 203.981H487.459V230.903H460.916V203.981Z" fill="#454B57"/>
<path d="M407.846 150.272H434.388V177.193H407.846V150.272Z" fill="#454B57"/>
<path d="M460.916 150.272H487.459V177.193H460.916V150.272Z" fill="#454B57"/>
<path d="M407.846 96.3201H434.388V123.243H407.846V96.3201Z" fill="#454B57"/>
<path d="M460.916 96.3201H487.459V123.243H460.916V96.3201Z" fill="#454B57"/>
</g>
</svg>
